<?xml version="1.0" ?><!DOCTYPE svg  PUBLIC '-//W3C//DTD SVG 1.1//EN'  'http://www.w3.org/Graphics/SVG/1.1/DTD/svg11.dtd'><svg enable-background="new 0 0 65 65" id="Layer_1" version="1.1" viewBox="0 0 65 65" xml:space="preserve" xmlns="http://www.w3.org/2000/svg" xmlns:xlink="http://www.w3.org/1999/xlink"><g><path d="M9.5,33.3C9.2,33,9,32.6,9,32.2H7.5c0,0.8,0.4,1.6,1,2.2c0.5,0.4,1,0.7,1.6,0.8v1.7h1.5v-1.7c0.6-0.1,1.2-0.4,1.6-0.8   c0.7-0.6,1-1.4,1-2.2c0-0.8-0.4-1.6-1-2.2c-0.6-0.6-1.5-0.9-2.4-0.9c-0.5,0-1-0.2-1.4-0.5C9.2,28.4,9,28,9,27.6   c0-0.4,0.2-0.8,0.5-1.1c0.7-0.6,2-0.6,2.8,0c0.3,0.3,0.5,0.7,0.5,1.1h1.5c0-0.8-0.4-1.6-1-2.2c-0.5-0.4-1-0.6-1.6-0.7V23h-1.5v1.8   c-0.6,0.1-1.2,0.4-1.6,0.7c-0.7,0.6-1,1.4-1,2.2c0,0.8,0.4,1.6,1,2.2c0.6,0.6,1.5,0.9,2.4,0.9c0.5,0,1,0.2,1.4,0.5   c0.3,0.3,0.5,0.7,0.5,1.1c0,0.4-0.2,0.8-0.5,1.1C11.6,33.9,10.3,33.9,9.5,33.3z"/><path d="M65,17H50.2l1.3-3.3c0.5-1.3,0.3-2.7-0.4-3.8l0.8-2c0.2-0.6,0.2-1.2,0-1.7c-0.2-0.6-0.7-1-1.2-1.2c-1.2-0.5-2.5,0.1-3,1.3   l-0.8,2c-1.3,0.3-2.4,1.2-2.9,2.5l-0.7,1.7l-2.8-1.1c-0.4-0.2-0.8,0-1,0.4L37.4,17H0v36.7h28.1c0,0.4,0,0.8,0,1.2   c0,0.8,0.4,1.5,1,2l-0.9,2.3c-0.2,0.4,0,0.8,0.4,1c0.1,0,0.2,0.1,0.3,0.1c0.3,0,0.6-0.2,0.7-0.5l0.9-2.3c0.1,0,0.2,0,0.3,0   c0.7,0,1.3-0.3,1.8-0.7c0.9-0.9,1.7-1.9,2.4-3H65V17z M49.5,6.3c0.2-0.1,0.4-0.1,0.6,0c0.2,0.1,0.3,0.2,0.4,0.4   c0.1,0.2,0.1,0.4,0,0.6L50,8.8c-0.2-0.1-0.5-0.3-0.7-0.4c-0.2-0.1-0.5-0.2-0.8-0.2l0.6-1.4C49.2,6.5,49.3,6.4,49.5,6.3z M1.5,52.2   V18.5h35.3l-2.4,6.1c-0.2,0.4,0,0.8,0.4,1c0.1,0,0.2,0.1,0.3,0.1c0.3,0,0.6-0.2,0.7-0.5l4.9-12.3l2.1,0.8L29.6,46.4   c-0.7,1.9-1.2,3.8-1.4,5.8H1.5z M31.4,55.7c-0.3,0.3-0.8,0.4-1.2,0.2c-0.4-0.2-0.7-0.6-0.7-1c0-2.7,0.5-5.4,1.5-7.9l14.3-35.8   c0.4-1,1.3-1.6,2.4-1.6c0.3,0,0.7,0.1,1,0.2c1.3,0.5,2,2,1.4,3.4L35.8,48.9C34.8,51.5,33.3,53.7,31.4,55.7z M63.5,52.2H35.9   c0.5-0.9,1-1.8,1.4-2.7l12.4-31h13.9V52.2z"/><rect height="1.5" transform="matrix(0.9283 0.3719 -0.3719 0.9283 12.0988 -14.2193)" width="3.3" x="41.3" y="23.5"/><rect height="1.5" width="20" x="4.8" y="41.5"/><rect height="1.5" width="16.3" x="43.7" y="40.7"/><rect height="1.5" width="12.7" x="47.3" y="36.2"/><rect height="1.5" width="1.5" x="8.4" y="46.3"/><rect height="1.5" width="1.5" x="21.8" y="46.3"/><rect height="1.5" width="1.5" x="5" y="46.3"/><rect height="1.5" width="1.5" x="11.7" y="46.3"/><rect height="1.5" width="1.5" x="15.1" y="46.3"/><rect height="1.5" width="1.5" x="18.5" y="46.3"/><rect height="1.5" width="1.5" x="25.2" y="46.3"/><rect height="1.5" width="1.5" x="55.1" y="46.3"/><rect height="1.5" width="1.5" x="58.5" y="46.3"/><rect height="1.5" width="1.5" x="51.6" y="46.3"/><rect height="1.5" width="1.5" x="48.1" y="46.3"/><rect height="1.5" width="1.5" x="44.6" y="46.3"/><rect height="1.5" width="1.5" x="41.2" y="46.3"/></g></svg>