<?xml version="1.0" ?><svg style="enable-background:new 0 0 64 64;" version="1.1" viewBox="0 0 64 64" xml:space="preserve" xmlns="http://www.w3.org/2000/svg" xmlns:xlink="http://www.w3.org/1999/xlink"><style type="text/css">
	.st0{display:none;}
	.st1{display:inline;}
	.st2{fill:none;stroke:#B3B3B3;stroke-width:0.1;stroke-miterlimit:10;}
	.st3{fill:none;stroke:#000000;stroke-width:2;stroke-miterlimit:10;}
</style><g class="st0" id="Layer_1"><g class="st1"><rect class="st2" height="60" width="60" x="2" y="2"/><line class="st2" x1="32" x2="32" y1="2" y2="62"/><line class="st2" x1="62" x2="2" y1="32" y2="32"/><line class="st2" x1="2" x2="62" y1="2" y2="62"/><rect class="st2" height="44" width="44" x="10" y="10"/><line class="st2" x1="62" x2="2" y1="2" y2="62"/><line class="st2" x1="2" x2="32" y1="32" y2="2"/><line class="st2" x1="32" x2="62" y1="2" y2="32"/><line class="st2" x1="62" x2="32" y1="32" y2="62"/><line class="st2" x1="32" x2="2" y1="62" y2="32"/><circle class="st2" cx="32" cy="32" r="21"/></g></g><g id="Layer_2"><g><path d="M51.9,53.6c0,1.7-0.7,3.2-2,4c-2.3,1.5-5.7,0.5-7.5-2.2c-1.8-2.8-1.5-6.2,0.8-7.8c1.1-0.8,2.6-0.9,4-0.5    c1.4,0.4,2.6,1.4,3.5,2.7C51.6,51.1,51.9,52.4,51.9,53.6z M43.3,51.7c0,0.9,0.3,1.8,0.8,2.6c1.2,1.8,3.3,2.6,4.7,1.7    c1.4-0.9,1.5-3.2,0.3-5c-0.6-0.9-1.5-1.6-2.4-1.9c-0.9-0.3-1.7-0.2-2.3,0.2C43.7,49.8,43.3,50.7,43.3,51.7z"/></g><circle cx="31.6" cy="44.6" r="2"/><g><g><path d="M22,51.7c0,1.2-0.4,2.5-1.2,3.7c-1.8,2.8-5.2,3.7-7.5,2.2c-2.3-1.5-2.7-5-0.8-7.8c0.9-1.3,2.1-2.3,3.5-2.7     c1.4-0.5,2.9-0.3,4,0.5C21.3,48.5,22,50.1,22,51.7z M13.3,53.6c0,1,0.4,1.9,1.1,2.4c1.4,0.9,3.5,0.2,4.7-1.7     c1.2-1.8,1.1-4.1-0.3-5c-0.6-0.4-1.5-0.5-2.3-0.2c-0.9,0.3-1.8,1-2.4,1.9C13.6,51.8,13.3,52.8,13.3,53.6z"/></g><g><path d="M50.7,18.5c0,1-0.2,2-0.7,2.9l-15.5,28l-4.3,0.8c-2.4,2.9-5.9,7.1-6.1,7.4c-3,4.6-8.9,6-13,3.3c-4.1-2.8-5-8.7-1.9-13.3     c1.5-2.2,3.6-3.8,6.1-4.4c2.5-0.6,5-0.3,7,1.1c0.9,0.6,1.6,1.3,2.2,2.1l22.5-33.7l1.2,0.8C49.8,14.7,50.7,16.6,50.7,18.5z      M33.2,47.6l15.1-27.2c0.9-1.6,0.5-3.7-0.8-4.9L24.1,50.5l-0.7-1.7c-0.5-1.2-1.3-2.1-2.3-2.8c-1.5-1-3.4-1.3-5.4-0.8     c-2,0.5-3.7,1.8-4.9,3.6c-2.5,3.7-1.8,8.4,1.4,10.5c3.2,2.1,7.8,0.9,10.3-2.8c0.2-0.3,4.1-5,6.4-7.8l0.2-0.3L33.2,47.6z"/></g></g><path d="M38.8,46.6l-2.3-2.9l-1.1,1.9l3.7,4.8l0.7-1.6c0.5-1.2,1.3-2.1,2.3-2.8c1.5-1,3.4-1.3,5.4-0.8c2,0.5,3.7,1.8,4.9,3.6   c2.4,3.7,1.8,8.4-1.4,10.5c-3.2,2.1-7.8,0.9-10.3-2.8c-0.2-0.3-4.1-5-6.4-7.8l-0.2-0.3l-0.2,0l-0.1,0.1l-4.2,0.8   c0,0-0.1,0.1-0.2,0.2l3.5,0.7c2.4,2.9,5.9,7.1,6.1,7.4c3.1,4.6,8.9,6.1,13,3.3c2.5-1.6,3.8-4.4,3.8-7.4c0-2-0.6-4.1-1.8-5.9   c-1.5-2.2-3.6-3.8-6.1-4.4c-2.5-0.6-5-0.3-7,1.1C40.2,44.9,39.4,45.7,38.8,46.6z"/><g><polygon points="19.6,36 26.2,45.7 27.4,44 22,36   "/><polygon points="27.8,36 30.5,39.3 31.7,37.7 30.3,36   "/></g><path d="M52,2H12C9.2,2,7,4.2,7,7v25c0,2.8,2.2,5,5,5h20.7l1.3-2H12c-1.7,0-3-1.3-3-3V7c0-1.7,1.3-3,3-3h40c1.7,0,3,1.3,3,3v25   c0,1.7-1.3,3-3,3h-9.9l-1.3,2H52c2.8,0,5-2.2,5-5V7C57,4.2,54.8,2,52,2z"/><rect height="2" width="48" x="8" y="10"/><rect height="2" width="37" x="8" y="16"/><rect height="2" width="22" x="11" y="24"/><rect height="2" width="20" x="11" y="28"/><rect height="2" width="7" x="49" y="16"/></g></svg>