<?xml version="1.0" ?><!DOCTYPE svg  PUBLIC '-//W3C//DTD SVG 1.1//EN'  'http://www.w3.org/Graphics/SVG/1.1/DTD/svg11.dtd'><svg enable-background="new 0 0 70 70" id="Layer_1" version="1.1" viewBox="0 0 70 70" xml:space="preserve" xmlns="http://www.w3.org/2000/svg" xmlns:xlink="http://www.w3.org/1999/xlink"><g><line fill="none" stroke="#232323" stroke-miterlimit="10" stroke-width="2" x1="5" x2="65" y1="59" y2="59"/><rect fill="none" height="23" stroke="#232323" stroke-miterlimit="10" stroke-width="2" width="12" x="16" y="36"/><rect fill="none" height="15" stroke="#232323" stroke-miterlimit="10" stroke-width="2" width="21" x="33" y="36"/><rect fill="none" height="4" stroke="#232323" stroke-miterlimit="10" stroke-width="2" width="48" x="11" y="11"/><path d="M64.0153427,22.5230122   c0.9395752,1.4093685,0.9410553,3.2977982-0.1230164,4.6156998C62.97575,28.2739277,61.5726662,29,60,29   c-2.761425,0-5-2.2385769-5-5c0,2.7614231-2.238575,5-5,5s-5-2.2385769-5-5c0,2.7614231-2.238575,5-5,5s-5-2.2385769-5-5   c0,2.7614231-2.238575,5-5,5s-5-2.2385769-5-5c0,2.7614231-2.2385769,5-5,5s-5-2.2385769-5-5c0,2.7614231-2.2385759,5-5,5   c-1.5727129,0-2.9758325-0.7261143-3.8923965-1.8613873c-1.0640125-1.3179073-1.0625281-3.2062798-0.1229663-4.6156139L11,15h48   L64.0153427,22.5230122z" fill="none" stroke="#232323" stroke-miterlimit="10" stroke-width="2"/><line fill="none" stroke="#232323" stroke-miterlimit="10" stroke-width="2" x1="59" x2="59" y1="28.899231" y2="59"/><line fill="none" stroke="#232323" stroke-miterlimit="10" stroke-width="2" x1="11" x2="11" y1="28.899231" y2="59"/></g></svg>
