<?xml version="1.0" ?><svg height="100" version="1.1" width="100.0" xmlns="http://www.w3.org/2000/svg"><path d="M1000,150 l0,-50 l98,0 c59,0,102,43,102,102 l0,996 c0,59,-43,102,-102,102 l-996,0 c-59,0,-102,-43,-102,-102 l0,-996 c0,-59,43,-102,102,-102 l98,0 l0,50 l-99,0 c-29.5,0,-51,21.5,-51,51 l0,998 c0,29.5,21.5,51,51,51 l998,0 c29.5,0,51,-21.5,51,-51 l0,-998 c0,-29.5,-21.5,-51,-51,-51 Z M850,455 l0,-67 c91.5,73,150,185.5,150,312 c0,221,-179,400,-400,400 c-221,0,-400,-179,-400,-400 c0,-127,59,-240,151,-313.5 l0,67 c-62.5,63.5,-101,150.5,-101,246.5 c0,193.5,156.5,350,350,350 c193.5,0,350,-156.5,350,-350 c0,-95.5,-38,-182,-100,-245 Z M450,600 c55.5,0,100,44.5,100,100 c0,55.5,-44.5,100,-100,100 c-55.5,0,-100,-44.5,-100,-100 c0,-55.5,44.5,-100,100,-100 Z M450,650 c-27.5,0,-50,22.5,-50,50 c0,27.5,22.5,50,50,50 c27.5,0,50,-22.5,50,-50 c0,-27.5,-22.5,-50,-50,-50 Z M750,600 c55.5,0,100,44.5,100,100 c0,55.5,-44.5,100,-100,100 c-55.5,0,-100,-44.5,-100,-100 c0,-55.5,44.5,-100,100,-100 Z M750,650 c-27.5,0,-50,22.5,-50,50 c0,27.5,22.5,50,50,50 c27.5,0,50,-22.5,50,-50 c0,-27.5,-22.5,-50,-50,-50 Z M425,250 l50,0 l0,250 l-50,0 Z M720,250 l50,0 l0,250 l-50,0 Z M600,-90 c211.5,2,300,115,300,300 l0,39 c0,36,-15,51,-51,51 l-499,0 c-36,0,-51,-15,-51,-51 l0,-39 c0,-189,88.5,-302,301,-300 Z M600,-40 c-177,2,-251,100,-251,250 l0,40 l501,0 l0,-40 c0,-153.5,-73.5,-252,-250,-250 Z M575,-200 l50,0 l0,118 l-50,0 Z M575,-200 " fill="rgba(0,0,0,1.0)" transform="matrix(0.05,0.0,0.0,-0.05,20.0,80.0)"/></svg>
